<svg width="17" height="19" viewBox="0 0 17 19" fill="none" xmlns="http://www.w3.org/2000/svg">
<path d="M12 13.875V11.25H5.875V7.75H12V5.125L16.375 9.5L12 13.875ZM10.25 0.75C10.7141 0.75 11.1592 0.934374 11.4874 1.26256C11.8156 1.59075 12 2.03587 12 2.5V4.25H10.25V2.5H2.375V16.5H10.25V14.75H12V16.5C12 16.9641 11.8156 17.4092 11.4874 17.7374C11.1592 18.0656 10.7141 18.25 10.25 18.25H2.375C1.91087 18.25 1.46575 18.0656 1.13756 17.7374C0.809374 17.4092 0.625 16.9641 0.625 16.5V2.5C0.625 2.03587 0.809374 1.59075 1.13756 1.26256C1.46575 0.934374 1.91087 0.75 2.375 0.75H10.25Z" fill="#979797"/>
</svg>
