<svg width="18" height="22" viewBox="0 0 18 22" fill="none" xmlns="http://www.w3.org/2000/svg">
<path d="M14.4 6.91999H3.6V4.87999H14.4V6.91999ZM14.4 9.97999H3.6V7.93999H14.4V9.97999ZM14.4 13.04H3.6V11H14.4V13.04ZM18 2.83999C18 2.29895 17.8104 1.78006 17.4728 1.39749C17.1352 1.01492 16.6774 0.799988 16.2 0.799988H1.8C1.32261 0.799988 0.864773 1.01492 0.527208 1.39749C0.189642 1.78006 0 2.29895 0 2.83999V15.08C0 15.621 0.189642 16.1399 0.527208 16.5225C0.864773 16.9051 1.32261 17.12 1.8 17.12H14.4L18 21.2V2.83999Z" fill="black"/>
</svg>
