<svg width="35" height="35" viewBox="0 0 35 35" fill="none" xmlns="http://www.w3.org/2000/svg">
<circle cx="17.5" cy="17.5" r="17.5" fill="#979797"/>
<path d="M27 15.65C27 14.7065 26.2636 13.95 25.3636 13.95H20.1927L20.9782 10.0655C20.9945 9.9805 21.0027 9.887 21.0027 9.7935C21.0027 9.445 20.8636 9.122 20.6427 8.8925L19.7755 8L14.3918 13.593C14.0891 13.9075 13.9091 14.3325 13.9091 14.8V23.3C13.9091 23.7509 14.0815 24.1833 14.3884 24.5021C14.6952 24.8209 15.1115 25 15.5455 25H22.9091C23.5882 25 24.1691 24.575 24.4145 23.963L26.8855 17.9705C26.9591 17.775 27 17.571 27 17.35V15.65ZM9 25H12.2727V14.8H9V25Z" fill="white"/>
</svg>
