<svg width="15" height="14" viewBox="0 0 15 14" fill="none" xmlns="http://www.w3.org/2000/svg">
<path d="M15 6.3C15 5.523 14.3864 4.9 13.6364 4.9H9.32727L9.98182 1.701C9.99545 1.631 10.0023 1.554 10.0023 1.477C10.0023 1.19 9.88636 0.924 9.70227 0.735L8.97955 0L4.49318 4.606C4.24091 4.865 4.09091 5.215 4.09091 5.6V12.6C4.09091 12.9713 4.23458 13.3274 4.49031 13.5899C4.74604 13.8525 5.09289 14 5.45455 14H11.5909C12.1568 14 12.6409 13.65 12.8455 13.146L14.9045 8.211C14.9659 8.05 15 7.882 15 7.7V6.3ZM0 14H2.72727V5.6H0V14Z" fill="#979797"/>
</svg>
