<svg width="35" height="35" viewBox="0 0 35 35" fill="none" xmlns="http://www.w3.org/2000/svg">
<circle cx="17.5" cy="17.5" r="17.5" fill="#FFC52F"/>
<path d="M16.7796 18.2204C17.1344 18.558 17.1344 19.112 16.7796 19.4496C16.442 19.7871 15.888 19.7871 15.5504 19.4496C13.8626 17.7617 13.8626 15.0179 15.5504 13.33L18.6146 10.2659C20.3024 8.57804 23.0463 8.57804 24.7341 10.2659C26.422 11.9537 26.422 14.6976 24.7341 16.3854L23.4444 17.6751C23.4531 16.9654 23.3405 16.2556 23.0982 15.5805L23.505 15.165C24.5264 14.1523 24.5264 12.5077 23.505 11.495C22.4923 10.4736 20.8477 10.4736 19.835 11.495L16.7796 14.5504C15.7582 15.5632 15.7582 17.2077 16.7796 18.2204ZM19.2204 14.5504C19.558 14.2129 20.112 14.2129 20.4496 14.5504C22.1374 16.2383 22.1374 18.9821 20.4496 20.67L17.3854 23.7341C15.6976 25.422 12.9537 25.422 11.2659 23.7341C9.57804 22.0463 9.57804 19.3024 11.2659 17.6146L12.5556 16.3249C12.5469 17.0346 12.6595 17.7444 12.9018 18.4282L12.495 18.835C11.4736 19.8477 11.4736 21.4923 12.495 22.505C13.5077 23.5264 15.1523 23.5264 16.165 22.505L19.2204 19.4496C20.2418 18.4368 20.2418 16.7923 19.2204 15.7796C18.8656 15.442 18.8656 14.888 19.2204 14.5504Z" fill="white"/>
</svg>
