<svg width="35" height="35" viewBox="0 0 35 35" fill="none" xmlns="http://www.w3.org/2000/svg">
<circle cx="17.5" cy="17.5" r="17.5" fill="#FFC52F"/>
<path d="M21.5 21.7293C20.8667 21.7293 20.3 22.0005 19.8667 22.4254L13.925 18.6735C13.9667 18.4656 14 18.2577 14 18.0407C14 17.8237 13.9667 17.6158 13.925 17.4078L19.8 13.6921C20.25 14.1441 20.8417 14.4244 21.5 14.4244C22.163 14.4244 22.7989 14.1387 23.2678 13.63C23.7366 13.1214 24 12.4315 24 11.7122C24 10.9929 23.7366 10.303 23.2678 9.79439C22.7989 9.28575 22.163 9 21.5 9C20.837 9 20.2011 9.28575 19.7322 9.79439C19.2634 10.303 19 10.9929 19 11.7122C19 11.9292 19.0333 12.1371 19.075 12.3451L13.2 16.0608C12.75 15.6087 12.1583 15.3285 11.5 15.3285C10.837 15.3285 10.2011 15.6142 9.73223 16.1229C9.26339 16.6315 9 17.3214 9 18.0407C9 18.76 9.26339 19.4499 9.73223 19.9585C10.2011 20.4671 10.837 20.7529 11.5 20.7529C12.1583 20.7529 12.75 20.4726 13.2 20.0206L19.1333 23.7725C19.0917 23.9623 19.0667 24.1612 19.0667 24.3692C19.0667 25.8247 20.1583 27 21.5 27C22.8417 27 23.9333 25.8247 23.9333 24.3692C23.9333 23.669 23.677 22.9976 23.2206 22.5025C22.7643 22.0074 22.1454 21.7293 21.5 21.7293Z" fill="white"/>
</svg>
