<svg width="27" height="27" viewBox="0 0 27 27" fill="none" xmlns="http://www.w3.org/2000/svg">
<path d="M13.5 0C11.7272 0 9.97167 0.357857 8.33377 1.05314C6.69588 1.74842 5.20765 2.76751 3.95406 4.05223C1.42232 6.64682 0 10.1659 0 13.8352C0 19.9503 3.8745 25.1385 9.234 26.9786C9.909 27.0893 10.125 26.6604 10.125 26.2868C10.125 25.9686 10.125 25.097 10.125 23.9487C6.3855 24.7788 5.589 22.0948 5.589 22.0948C4.968 20.4899 4.0905 20.061 4.0905 20.061C2.862 19.2032 4.185 19.2309 4.185 19.2309C5.535 19.3277 6.2505 20.6559 6.2505 20.6559C7.425 22.7588 9.4095 22.1363 10.179 21.8042C10.3005 20.9049 10.6515 20.2962 11.0295 19.9503C8.0325 19.6044 4.887 18.4146 4.887 13.1434C4.887 11.6077 5.4 10.3764 6.2775 9.39408C6.1425 9.0482 5.67 7.60934 6.4125 5.74159C6.4125 5.74159 7.5465 5.36804 10.125 7.15278C11.1915 6.84841 12.3525 6.69622 13.5 6.69622C14.6475 6.69622 15.8085 6.84841 16.875 7.15278C19.4535 5.36804 20.5875 5.74159 20.5875 5.74159C21.33 7.60934 20.8575 9.0482 20.7225 9.39408C21.6 10.3764 22.113 11.6077 22.113 13.1434C22.113 18.4284 18.954 19.5906 15.9435 19.9365C16.4295 20.3654 16.875 21.2093 16.875 22.496C16.875 24.3499 16.875 25.8441 16.875 26.2868C16.875 26.6604 17.091 27.1031 17.7795 26.9786C23.139 25.1247 27 19.9503 27 13.8352C27 12.0183 26.6508 10.2192 25.9724 8.54068C25.2939 6.86212 24.2995 5.33694 23.0459 4.05223C21.7924 2.76751 20.3041 1.74842 18.6662 1.05314C17.0283 0.357857 15.2728 0 13.5 0Z" fill="black"/>
</svg>
